<svg data-v-423bf9ae="" xmlns="http://www.w3.org/2000/svg" viewBox="0 0 878.5516375720068 60" class="font"><!----><!----><!----><g data-v-423bf9ae="" id="1e17eca8-f6aa-46af-873c-265bda60a100" fill="white" transform="matrix(4.622496310940746,0,0,4.622496310940746,-5.408335302819239,-14.976887853112999)"><path d="M5.15 7.99C6.20 7.71 6.75 7.04 6.75 6.05C6.75 4.67 5.63 3.82 3.78 3.82L1.17 3.82L1.17 13.15L4.20 13.15C6.29 13.15 7.58 12.12 7.58 10.47C7.58 9.11 6.71 8.21 5.15 7.99ZM5.29 6.17C5.29 7 4.70 7.51 3.69 7.51L2.65 7.51L2.65 4.93L3.73 4.93C4.74 4.93 5.29 5.37 5.29 6.17ZM4.01 12.05L2.65 12.05L2.65 8.72L3.97 8.72C5.24 8.72 6.04 9.32 6.04 10.37C6.04 11.40 5.28 12.05 4.01 12.05ZM12.05 6.36C11.26 6.36 10.73 6.74 10.35 7.41L10.18 6.53L8.95 6.53L8.95 13.15L10.37 13.15L10.37 9.70C10.37 8.62 10.94 7.66 11.97 7.66C12.21 7.66 12.43 7.70 12.61 7.79L13.04 6.58C12.86 6.47 12.48 6.36 12.05 6.36ZM17.12 13.34C19.21 13.34 20.66 11.81 20.66 9.84C20.66 7.89 19.21 6.36 17.12 6.36C15.01 6.36 13.56 7.89 13.56 9.84C13.56 11.81 15.01 13.34 17.12 13.34ZM17.12 12.13C15.90 12.13 15.04 11.14 15.04 9.84C15.04 8.56 15.90 7.57 17.12 7.57C18.33 7.57 19.19 8.56 19.19 9.84C19.19 11.14 18.33 12.13 17.12 12.13ZM25.24 13.34C27.33 13.34 28.79 11.81 28.79 9.84C28.79 7.89 27.33 6.36 25.24 6.36C23.13 6.36 21.69 7.89 21.69 9.84C21.69 11.81 23.13 13.34 25.24 13.34ZM25.24 12.13C24.02 12.13 23.16 11.14 23.16 9.84C23.16 8.56 24.02 7.57 25.24 7.57C26.45 7.57 27.31 8.56 27.31 9.84C27.31 11.14 26.45 12.13 25.24 12.13ZM36.43 13.15L32.87 9.54L36.02 6.53L34.17 6.53L31.59 9.04L31.59 3.24L30.17 3.24L30.17 13.15L31.59 13.15L31.59 10.06L34.55 13.15ZM43.50 9.70C43.50 7.73 42.17 6.36 40.25 6.36C38.27 6.36 36.84 7.89 36.84 9.84C36.84 11.80 38.25 13.31 40.42 13.31C41.56 13.31 42.52 12.92 43.12 12.25L42.15 11.46C41.72 11.94 41.15 12.19 40.41 12.19C39.17 12.19 38.43 11.33 38.33 10.15L43.50 10.15ZM40.25 7.50C41.29 7.50 41.96 8.12 42.10 9.17L38.38 9.17C38.59 8.17 39.27 7.50 40.25 7.50ZM53.83 6.53L53.64 7.45C53.13 6.78 52.35 6.36 51.33 6.36C49.61 6.36 48.24 7.69 48.24 9.84C48.24 12.00 49.61 13.31 51.33 13.31C52.34 13.31 53.11 12.89 53.62 12.22L53.83 13.15L54.99 13.15L54.99 6.53ZM51.67 12.12C50.47 12.12 49.69 11.14 49.69 9.84C49.69 8.55 50.47 7.55 51.67 7.55C52.91 7.55 53.71 8.55 53.71 9.84C53.71 11.14 52.91 12.12 51.67 12.12ZM60.20 6.36C59.27 6.36 58.57 6.75 58.16 7.32L57.98 6.53L56.74 6.53L56.74 13.15L58.16 13.15L58.16 9.11C58.28 7.95 59.06 7.57 59.81 7.57C60.83 7.57 61.26 8.30 61.26 9.38L61.26 13.15L62.68 13.15L62.68 9.06C62.68 7 61.35 6.36 60.20 6.36ZM69.29 3.24L69.29 7.32C68.78 6.72 68.05 6.36 67.10 6.36C65.38 6.36 64.01 7.69 64.01 9.84C64.01 12.00 65.38 13.31 67.10 13.31C68.09 13.31 68.86 12.91 69.37 12.25L69.55 13.15L70.70 13.15L70.70 3.24ZM67.43 12.12C66.24 12.12 65.45 11.14 65.45 9.84C65.45 8.55 66.24 7.55 67.43 7.55C68.67 7.55 69.48 8.55 69.48 9.84C69.48 11.14 68.67 12.12 67.43 12.12ZM84.64 3.82L81.20 8.65L77.77 3.82L76.45 3.82L76.45 13.15L77.92 13.15L77.92 6.31L81.21 10.76L84.50 6.31L84.50 13.15L85.97 13.15L85.97 3.82ZM88.86 5.26C89.37 5.26 89.78 4.86 89.78 4.36C89.78 3.86 89.37 3.46 88.86 3.46C88.36 3.46 87.95 3.86 87.95 4.36C87.95 4.86 88.36 5.26 88.86 5.26ZM88.19 13.15L89.57 13.15L89.57 6.53L88.19 6.53ZM94.62 13.34C95.54 13.34 96.28 13.07 96.89 12.60L96.08 11.58C95.71 11.93 95.20 12.13 94.65 12.13C93.35 12.13 92.58 11.14 92.58 9.84C92.58 8.55 93.35 7.57 94.65 7.57C95.20 7.57 95.71 7.77 96.08 8.12L96.89 7.10C96.28 6.64 95.54 6.36 94.62 6.36C92.56 6.36 91.13 7.89 91.13 9.84C91.13 11.81 92.56 13.34 94.62 13.34ZM101.47 6.36C100.54 6.36 99.82 6.75 99.41 7.35L99.41 3.24L98 3.24L98 13.15L99.41 13.15L99.41 9.42C99.41 8.02 100.28 7.57 101.08 7.57C102.10 7.57 102.54 8.30 102.54 9.38L102.54 13.15L103.95 13.15L103.95 9.06C103.95 7 102.62 6.36 101.47 6.36ZM110.85 6.53L110.66 7.45C110.15 6.78 109.38 6.36 108.35 6.36C106.63 6.36 105.26 7.69 105.26 9.84C105.26 12.00 106.63 13.31 108.35 13.31C109.36 13.31 110.13 12.89 110.64 12.22L110.85 13.15L112.01 13.15L112.01 6.53ZM108.69 12.12C107.49 12.12 106.71 11.14 106.71 9.84C106.71 8.55 107.49 7.55 108.69 7.55C109.93 7.55 110.73 8.55 110.73 9.84C110.73 11.14 109.93 12.12 108.69 12.12ZM120.06 9.70C120.06 7.73 118.74 6.36 116.81 6.36C114.83 6.36 113.40 7.89 113.40 9.84C113.40 11.80 114.81 13.31 116.99 13.31C118.13 13.31 119.09 12.92 119.69 12.25L118.71 11.46C118.29 11.94 117.72 12.19 116.97 12.19C115.73 12.19 114.99 11.33 114.89 10.15L120.06 10.15ZM116.81 7.50C117.85 7.50 118.52 8.12 118.66 9.17L114.95 9.17C115.15 8.17 115.84 7.50 116.81 7.50ZM121.52 13.15L122.94 13.15L122.94 3.24L121.52 3.24ZM124.80 7.50L125.40 7.50C125.56 5.78 125.91 5.10 125.91 4.45C125.91 3.97 125.56 3.59 125.11 3.59C124.66 3.59 124.29 3.97 124.29 4.45C124.29 5.10 124.64 5.78 124.80 7.50ZM126.57 12.22C127.05 12.88 128.06 13.34 129.30 13.34C130.93 13.34 131.94 12.54 131.94 11.35C131.94 9.00 128.44 9.79 128.44 8.36C128.44 7.86 128.81 7.53 129.59 7.51C130.07 7.50 130.62 7.73 131.02 8.11L131.79 7.22C131.35 6.75 130.51 6.36 129.53 6.36C127.95 6.36 126.99 7.19 126.99 8.41C126.99 10.82 130.43 10.09 130.43 11.38C130.43 11.87 130.03 12.21 129.21 12.21C128.55 12.21 127.95 11.97 127.47 11.35ZM147.42 3.82L145.25 11.07L143.18 3.82L141.94 3.82L139.85 11.07L137.68 3.82L136.11 3.82L139.18 13.15L140.44 13.15L142.55 5.96L144.67 13.15L145.92 13.15L148.98 3.82ZM156.17 9.70C156.17 7.73 154.85 6.36 152.92 6.36C150.94 6.36 149.51 7.89 149.51 9.84C149.51 11.80 150.92 13.31 153.10 13.31C154.23 13.31 155.20 12.92 155.79 12.25L154.82 11.46C154.39 11.94 153.83 12.19 153.08 12.19C151.84 12.19 151.10 11.33 151.00 10.15L156.17 10.15ZM152.92 7.50C153.96 7.50 154.63 8.12 154.77 9.17L151.05 9.17C151.26 8.17 151.94 7.50 152.92 7.50ZM162.50 3.24L162.50 7.32C161.99 6.72 161.26 6.36 160.31 6.36C158.59 6.36 157.22 7.69 157.22 9.84C157.22 12.00 158.59 13.31 160.31 13.31C161.31 13.31 162.08 12.91 162.59 12.25L162.76 13.15L163.92 13.15L163.92 3.24ZM160.65 12.12C159.45 12.12 158.67 11.14 158.67 9.84C158.67 8.55 159.45 7.55 160.65 7.55C161.89 7.55 162.69 8.55 162.69 9.84C162.69 11.14 161.89 12.12 160.65 12.12ZM170.60 3.24L170.60 7.32C170.09 6.72 169.36 6.36 168.41 6.36C166.69 6.36 165.32 7.69 165.32 9.84C165.32 12.00 166.69 13.31 168.41 13.31C169.40 13.31 170.17 12.91 170.68 12.25L170.86 13.15L172.01 13.15L172.01 3.24ZM168.74 12.12C167.55 12.12 166.76 11.14 166.76 9.84C166.76 8.55 167.55 7.55 168.74 7.55C169.98 7.55 170.79 8.55 170.79 9.84C170.79 11.14 169.98 12.12 168.74 12.12ZM174.61 5.26C175.12 5.26 175.53 4.86 175.53 4.36C175.53 3.86 175.12 3.46 174.61 3.46C174.11 3.46 173.70 3.86 173.70 4.36C173.70 4.86 174.11 5.26 174.61 5.26ZM173.94 13.15L175.32 13.15L175.32 6.53L173.94 6.53ZM180.70 6.36C179.77 6.36 179.07 6.75 178.66 7.32L178.49 6.53L177.25 6.53L177.25 13.15L178.66 13.15L178.66 9.11C178.78 7.95 179.56 7.57 180.31 7.57C181.33 7.57 181.77 8.30 181.77 9.38L181.77 13.15L183.18 13.15L183.18 9.06C183.18 7 181.85 6.36 180.70 6.36ZM190.08 6.53L189.89 7.47C189.38 6.80 188.61 6.36 187.59 6.36C185.86 6.36 184.49 7.67 184.49 9.81C184.49 11.96 185.86 13.27 187.59 13.27C188.55 13.27 189.31 12.89 189.82 12.26L189.82 12.43C189.82 14.13 189.31 15.02 187.91 15.02C187.54 15.02 187.15 14.95 186.80 14.79L186.48 15.98C186.91 16.13 187.45 16.22 187.98 16.22C190.14 16.22 191.23 14.95 191.23 12.54L191.23 6.53ZM187.92 12.07C186.73 12.07 185.94 11.11 185.94 9.81C185.94 8.53 186.73 7.54 187.92 7.54C189.16 7.54 189.96 8.53 189.96 9.81C189.96 11.11 189.16 12.07 187.92 12.07Z"></path></g><!----><!----></svg>